<svg x="0" y="0" style="enable-background:new 0 0 224 85" version="1.1" viewBox="0 0 224 85" xml:space="preserve" class="{{class-placeholder}}"><g id="Desktop"><g id="Default-Home" transform="translate(-61 -63)"><g id="Group-42" transform="translate(61 60)"><g id="Group-41" transform="translate(0 3)"><path id="Fill-1" d="M40.6 11.3c-16 0-29 13.1-29 29.1 0 16.1 13 29.1 29 29.1s29-13.1 29-29.1c-.1-16-13-29.1-29-29.1m0 53c-13.1 0-23.7-10.7-23.7-23.9s10.6-23.9 23.7-23.9 23.7 10.7 23.7 23.9-10.6 23.9-23.7 23.9" class="st0"/><path id="Fill-3" d="M50.4 40.4c0-2.9-1.3-5.5-3.3-7.3 1.8 2.9 1.6 5.3 1.3 6.3-.5 2-2.1 3.5-3.9 3.9-.3.1-.5.1-.7.1-1.2 0-2.3-.5-3.2-1.5-.9.1-3.3.5-3.6 2.3-.2.9.4 2 1.4 2.8 1 .8 3.7 2.4 8.9.9 1.9-2 3.1-4.6 3.1-7.5" class="st0"/><path id="Fill-5" d="M37.4 48c-1.4-1.2-2.1-2.7-1.8-4.2.5-2.7 3.4-3.4 4.7-3.4.1-1.1 0-3.6-2.2-4.3-3.5-.9-6.9 3-7.4 3.8v.5c0 5.4 4.4 9.9 9.8 9.9 1.1 0 2.2-.2 3.2-.5h-.6c-3.1 0-4.9-1.1-5.7-1.8" class="st0"/><path id="Fill-7" d="M31.2 37.3c1.6-1.5 4.3-3.3 7.3-2.5 3.1.8 3.4 4.2 3.2 6.1.7.8 1.6 1.2 2.6 1 1.3-.3 2.3-1.4 2.8-2.8.6-2.4-.6-5.4-3.6-8.1-.9-.3-1.9-.5-2.9-.5-4.3 0-8 2.9-9.4 6.8" class="st0"/><path id="Fill-9" d="M40.6 9.9c1.9 0 3.8.2 5.6.5.1-.4.2-.6.2-1.1C46.4 7.5 45 6 43.2 6c-.2 0-.5 0-.6.1.5-.5 1-1.4 1-2.3C43.6 2 42.2.5 40.4.5c-1.8 0-3.2 1.5-3.2 3.3 0 .9.4 1.7 1 2.3-.2 0-.4-.1-.6-.1-1.8 0-3.2 1.5-3.2 3.3 0 .5.1.8.2 1.2 1.7-.5 3.8-.6 6-.6m-.4-2.8c.2 0 .5 0 .6-.1-.3.3-.5.5-.6.9-.2-.4-.4-.6-.6-.9.3.1.4.1.6.1" class="st0"/><path id="Fill-11" d="M64.1 21.2c1.4-.4 2.4-1.6 2.4-3.2 0-1.8-1.4-3.3-3.2-3.3-1.5 0-2.7 1-3.1 2.4 1.5 1.3 2.8 2.6 3.9 4.1" class="st0"/><path id="Fill-13" d="M78 37.3c-.9 0-1.7.4-2.3 1 0-.2.1-.4.1-.6 0-1.8-1.4-3.3-3.2-3.3-.8 0-1.5.3-2.2.8.3 1.6.5 3.4.5 5.2.1.1.2.1.3.2-.1 0-.2.1-.3.2 0 1.7-.2 3.4-.5 5.2.5.5 1.4.8 2.2.8 1.8 0 3.2-1.5 3.2-3.3 0-.2 0-.5-.1-.6.5.5 1.4 1 2.3 1 1.8 0 3.2-1.5 3.2-3.3.1-2-1.4-3.3-3.2-3.3m-3.1 3.8c-.3-.3-.5-.5-.9-.6.4-.2.6-.4.9-.6 0 .2-.1.4-.1.6.1.2.1.4.1.6" class="st0"/><path id="Fill-15" d="M64 59.8c-1.3 1.5-2.6 2.9-4.1 4.2.5 1.2 1.6 2.1 3 2.1 1.8 0 3.2-1.5 3.2-3.3 0-1.3-.9-2.5-2.1-3" class="st0"/><path id="Fill-17" d="M40.6 70.9c-2 0-4-.2-6-.5-.1.3-.2.6-.2 1 0 1.8 1.4 3.3 3.2 3.3.2 0 .5 0 .6-.1-.5.5-1 1.4-1 2.3 0 1.8 1.4 3.3 3.2 3.3s3.2-1.5 3.2-3.3c0-.9-.4-1.7-1-2.3.2 0 .4.1.6.1 1.8 0 3.2-1.5 3.2-3.3 0-.4-.1-.7-.2-1-1.6.3-3.6.5-5.6.5m0 2.6c-.2 0-.5 0-.6.1.3-.3.5-.5.6-.9.2.4.4.6.6.9-.2 0-.4-.1-.6-.1" class="st0"/><path id="Fill-19" d="M17.1 59.8c-1.3.5-2.1 1.6-2.1 3 0 1.8 1.4 3.3 3.2 3.3 1.4 0 2.5-.9 3-2.1-1.4-1.3-2.8-2.7-4.1-4.2" class="st0"/><path id="Fill-21" d="M10.6 34.9c-.5-.5-1.2-.6-2-.6-1.8 0-3.2 1.5-3.2 3.3 0 .2 0 .5.1.6-.5-.5-1.4-1-2.3-1-1.8 0-3.2 1.5-3.2 3.3 0 1.8 1.4 3.3 3.2 3.3.9 0 1.7-.4 2.3-1 0 .2-.1.4-.1.6 0 1.8 1.4 3.3 3.2 3.3.7 0 1.4-.3 2-.6-.4-1.7-.5-3.6-.5-5.4.1-2.2.3-4 .5-5.8M6.5 41c0-.2.1-.4.1-.6 0-.3 0-.5-.1-.6.3.2.5.4.9.5-.4.2-.7.5-.9.7" class="st0"/><path id="Fill-23" d="M16.8 21.6c1.2-1.5 2.4-2.8 3.9-4.1-.5-1.4-1.6-2.3-3.1-2.3-1.8 0-3.2 1.5-3.2 3.3-.1 1.4 1 2.7 2.4 3.1" class="st0"/><path id="Fill-25" d="M43.1 28.5V18.1c-.8-.1-1.7-.2-2.5-.2-.9 0-1.7.1-2.6.2v10.2c.8-.2 1.7-.3 2.5-.3.9.2 1.8.3 2.6.5" class="st0"/><path id="Fill-27" d="m54.4 22.8-7.2 7.3c1.4.9 2.7 2.2 3.6 3.6l7.2-7.3a30.6 30.6 0 0 0-3.6-3.6" class="st0"/><path id="Fill-29" d="M52.8 40.4c0 .8-.1 1.7-.3 2.4h10.2c.1-.8.2-1.7.2-2.5 0-.9-.1-1.7-.2-2.5H52.5c.2.9.3 1.7.3 2.6" class="st0"/><path id="Fill-31" d="m47.3 50.8 7.1 7.2c1.4-1.1 2.5-2.3 3.6-3.6l-7.1-7.2c-1 1.4-2.2 2.6-3.6 3.6" class="st0"/><path id="Fill-33" d="M38 52.5v10.2c.8.1 1.7.2 2.5.2.9 0 1.7-.1 2.5-.2V52.5c-.8.2-1.7.3-2.5.3s-1.7-.1-2.5-.3" class="st0"/><path id="Fill-35" d="m30.3 47.1-7.1 7.2c1.1 1.4 2.3 2.5 3.6 3.6l7.1-7.2c-1.5-.9-2.7-2.1-3.6-3.6" class="st0"/><path id="Fill-37" d="M28.3 40.4c0-.9.1-1.8.3-2.6H18.4c-.1.8-.2 1.7-.2 2.5 0 .9.1 1.7.2 2.5h10.1c-.1-.7-.2-1.5-.2-2.4" class="st0"/><path id="Fill-39" d="m33.9 30.1-7.2-7.3c-1.4 1.1-2.5 2.3-3.6 3.6l7.2 7.3c1-1.4 2.2-2.6 3.6-3.6" class="st0"/></g><g class="st1"><path d="M102.8 24V7.2h8.2c2 0 3.5.5 4.4 1.5.9 1 1.4 2.3 1.4 3.9 0 1-.3 2-.8 2.9-.5.9-1.3 1.6-2.2 2l3.1 6.5h-4.1l-3-5.9h-3.2V24h-3.8zm3.6-9.4h4.6c1.3 0 1.9-.7 1.9-2 0-.6-.1-1-.4-1.4-.3-.4-.8-.6-1.5-.6h-4.6v4z" class="st2"/></g><g class="st1"><path d="M119.7 24V7.2h12.1v3.5h-8.4v3h4.7v3.5h-4.7v3.5h8.9V24h-12.6z" class="st2"/></g><g class="st1"><path d="M140.7 24.2c-1.3 0-2.4-.3-3.3-.8-1-.5-1.7-1.2-2.2-2-.5-.8-.9-1.8-1.2-2.7-.2-1-.4-2-.4-3.1 0-1 .1-2 .4-3 .3-1 .6-1.9 1.2-2.8.5-.9 1.3-1.6 2.2-2.1 1-.5 2.1-.8 3.3-.8 1.5 0 2.8.4 3.9 1.2 1.1.8 1.8 1.7 2.3 2.9l-3.3 1.5c-.5-.7-.9-1.2-1.3-1.5-.4-.3-.9-.5-1.6-.5-.6 0-1.1.2-1.6.5-.4.3-.8.7-1 1.2-.2.5-.4 1.1-.5 1.6-.1.6-.2 1.2-.2 1.8 0 .8.1 1.6.3 2.4.2.8.6 1.4 1.1 1.9.5.5 1.1.8 1.9.8 1 0 2-.7 2.9-2.2l3.3 1.2c-1.3 3.1-3.4 4.5-6.2 4.5z" class="st2"/></g><g class="st1"><path d="M155.8 24.3c-1.1 0-2-.2-2.9-.5-.9-.3-1.6-.8-2.1-1.4-.6-.6-1-1.2-1.4-2s-.6-1.5-.8-2.3c-.2-.8-.3-1.6-.3-2.5 0-.9.1-1.7.3-2.5.2-.8.4-1.6.8-2.3s.8-1.4 1.4-2c.6-.6 1.3-1 2.1-1.4.9-.3 1.8-.5 2.9-.5 1.3 0 2.4.3 3.4.8s1.8 1.2 2.3 2c.6.9 1 1.8 1.3 2.8s.4 2 .4 3.1-.1 2.1-.4 3.1c-.3 1-.7 1.9-1.3 2.8-.6.9-1.3 1.5-2.3 2s-2.1.8-3.4.8zm0-3.5c.8 0 1.5-.3 2.1-.9.6-.6 1-1.2 1.2-2 .2-.7.3-1.5.3-2.3 0-.9-.1-1.7-.3-2.4-.2-.7-.6-1.4-1.2-1.9-.6-.6-1.3-.8-2.2-.8-.9 0-1.6.3-2.2.9-.6.6-1 1.2-1.2 2s-.3 1.5-.3 2.4c0 .6.1 1.2.2 1.8.1.6.3 1.1.6 1.6s.7.9 1.2 1.2 1.2.4 1.8.4z" class="st2"/></g><g class="st1"><path d="m167.9 24-6-16.8h4l3.6 10.6c0 .1.1.3.1.5l.1.3c0-.1.1-.4.2-.7l3.6-10.6h3.9l-6 16.8h-3.5z" class="st2"/></g><g class="st1"><path d="M178.5 24V7.2h12.1v3.5h-8.4v3h4.7v3.5h-4.7v3.5h8.9V24h-12.6z" class="st2"/></g><g class="st1"><path d="M193.8 24V7.2h8.2c2 0 3.5.5 4.4 1.5.9 1 1.4 2.3 1.4 3.9 0 1-.3 2-.8 2.9-.5.9-1.3 1.6-2.2 2l3.1 6.5h-4.1l-3-5.9h-3.2V24h-3.8zm3.6-9.4h4.6c1.3 0 1.9-.7 1.9-2 0-.6-.1-1-.4-1.4-.3-.4-.8-.6-1.5-.6h-4.6v4z" class="st2"/></g><g class="st1"><path d="M213.6 24v-6.5l-6.4-10.3h4.1l4.1 6.4 4.1-6.4h4.1l-6.4 10.3V24h-3.6z" class="st2"/></g><g class="st1"><path d="M102.8 34.2h6.2c1.4 0 2.7.2 3.7.7 1.1.5 1.9 1.1 2.6 1.9.6.8 1.1 1.7 1.4 2.7.3 1 .5 2 .5 3.1 0 .8-.1 1.6-.3 2.3s-.5 1.5-.9 2.3-.9 1.4-1.6 1.9c-.6.6-1.4 1-2.4 1.3-1 .3-2 .5-3.2.5h-6.1V34.2zm6.5 13.3c1.4 0 2.4-.5 3.1-1.5.7-1 1-2.1 1-3.4 0-1.3-.3-2.5-1-3.5s-1.6-1.5-2.9-1.5h-3.1v9.9h2.9z" class="st2"/></g><g class="st1"><path d="M130.6 51v-6.9h-6.7V51h-3.6V34.2h3.6v6.4h6.7v-6.4h3.7V51h-3.7zM149.2 51l-1.2-3.3h-6.3l-1.2 3.3h-4l6.6-16.8h3.5l6.6 16.8h-4zm-2.5-6.6-1.4-3.6c-.2-.5-.4-1-.5-1.4-.1.3-.2.7-.5 1.4l-1.4 3.6h3.8z" class="st2"/></g><g class="st1"><path d="M155.3 51V34.2h8.2c2 0 3.5.5 4.4 1.5.9 1 1.4 2.3 1.4 3.9 0 1-.3 2-.8 2.9s-1.3 1.6-2.2 2l3.1 6.5h-4.1l-3-5.9h-3.2V51h-3.8zm3.6-9.4h4.6c1.3 0 1.9-.7 1.9-2 0-.6-.1-1-.4-1.4-.3-.4-.8-.6-1.5-.6h-4.6v4z" class="st2"/></g><g class="st1"><path d="M188.2 51h-3.6v-8.8c-.1.2-.2.4-.2.5l-4.1 8.7-4.1-8.6c0-.1-.1-.3-.2-.5V51h-3.6V34.2h3.7l3.9 8.6c.1.3.2.6.4 1.1.2-.4.3-.8.4-1.1l4-8.6h3.4V51zM203.1 51l-1.2-3.3h-6.3l-1.2 3.3h-4l6.6-16.8h3.5l6.6 16.8h-4zm-2.5-6.6-1.4-3.6c-.2-.5-.4-1-.5-1.4-.1.3-.2.7-.5 1.4l-1.4 3.6h3.8z" class="st2"/></g><g class="st1"><path d="M112.8 84h-1.3l-5-8c-.2-.3-.3-.6-.4-.8V84h-1.4V72.8h1.4l5 8c.2.3.3.6.5.8v-8.8h1.4V84z" class="st2"/></g><g class="st1"><path d="M118.8 84.2c-1.1 0-2-.4-2.6-1.2-.7-.8-1-1.8-1-3.1s.3-2.4 1-3.1c.7-.8 1.5-1.1 2.6-1.1 1 0 1.8.3 2.4 1s1 1.6 1 2.9v.9h-5.5c.1.7.3 1.3.7 1.8.4.5.9.7 1.5.7.7 0 1.3-.2 1.8-.7l.8.9c-.8.6-1.6 1-2.7 1zm-2.2-4.9h4.2c0-.8-.2-1.5-.6-1.8-.4-.4-.8-.6-1.4-.6-.6 0-1.1.2-1.6.6-.3.4-.6 1-.6 1.8z" class="st2"/></g><g class="st1"><path d="m125.3 84-2.1-8.2h1.4l1.2 5.5c0 .1 0 .2.1.4 0 .2.1.4.1.5 0-.1.1-.4.2-.9l1.5-5.5h1.2l1.5 5.5.2.9c0-.1.1-.2.1-.4s.1-.4.1-.4l1.2-5.5h1.4l-2.1 8.2h-1.2l-1.5-4.8c-.1-.5-.3-.8-.3-1.1-.1.4-.2.8-.3 1.1l-1.5 4.8h-1.2z" class="st2"/></g><g class="st1"><path d="M141.6 84v-4.4l-3.8-6.8h1.6l2.9 5.4 3-5.4h1.5l-3.8 6.8V84h-1.4z" class="st2"/></g><g class="st1"><path d="M152.1 83c-.7.8-1.5 1.1-2.6 1.1s-2-.4-2.6-1.1c-.7-.8-1-1.8-1-3.1s.3-2.4 1-3.1c.7-.8 1.5-1.1 2.6-1.1s2 .4 2.6 1.1c.7.8 1 1.8 1 3.1s-.3 2.4-1 3.1zm-4.2-.9c.4.5.9.8 1.6.8s1.2-.3 1.6-.8c.4-.5.6-1.3.6-2.2 0-.9-.2-1.7-.6-2.2-.4-.5-.9-.8-1.6-.8s-1.2.3-1.6.8-.6 1.3-.6 2.2c0 .9.2 1.7.6 2.2z" class="st2"/></g><g class="st1"><path d="M155.3 84v-8.2h1.4v1.1c.4-.8 1-1.3 1.9-1.3.5 0 .9.1 1.3.4l-.2 1.3c-.3-.2-.7-.4-1.2-.4s-.9.2-1.3.6c-.4.4-.6 1-.6 1.8V84h-1.3z" class="st2"/></g><g class="st1"><path d="M168 84h-1.5l-2.5-4.9-1.2 1.2V84h-1.4V73.1l1.4-.7v6.2l2.7-2.8h1.7l-2.1 2.2 2.9 6z" class="st2"/></g><g class="st1"><path d="M178.6 84.2c-.8 0-1.5-.2-2.1-.5-.6-.3-1.1-.8-1.5-1.3-.4-.6-.6-1.2-.8-1.8-.2-.7-.3-1.4-.3-2.1 0-.7.1-1.4.3-2.1.2-.7.4-1.3.8-1.8s.8-1 1.5-1.3 1.3-.5 2.1-.5c1.7 0 3 .7 3.6 2l-1.2.6c-.3-.4-.6-.8-1-1s-.8-.3-1.4-.3c-.8 0-1.4.2-1.9.7-.5.5-.8 1-1 1.7-.2.6-.3 1.3-.3 2.1 0 1.2.3 2.3.8 3.2.5.9 1.3 1.3 2.4 1.3s1.9-.5 2.4-1.4l1.3.5c-.3.7-.8 1.2-1.4 1.6-.6.2-1.3.4-2.3.4zM185.9 74.1c-.2.2-.4.2-.6.2-.2 0-.5-.1-.6-.3-.2-.2-.2-.4-.2-.6 0-.2.1-.5.3-.6.2-.2.4-.3.6-.3.2 0 .5.1.6.3.2.2.3.4.3.6-.1.3-.2.5-.4.7zm-1.3 9.9v-8.2h1.4V84h-1.4zM190.9 84.2c-1.2 0-1.7-.7-1.7-2V77h-1.3v-1.2h1.3v-2.7l1.4-.7v3.4h2V77h-2v4.7c0 .4.1.6.2.8.1.2.3.3.7.3.4 0 .8-.1 1.2-.4l-.2 1.4c-.5.3-1.1.4-1.6.4zM195.6 87.1l1.2-3.3-3-8h1.4l2 5.6c.1.2.2.4.3.8.1-.3.2-.6.3-.8l2.1-5.6h1.4L197 87.1h-1.4z" class="st2"/></g></g></g></g></svg>