<?xml version="1.0" encoding="utf-8"?>
<!-- Generator: Adobe Illustrator 23.1.1, SVG Export Plug-In . SVG Version: 6.00 Build 0)  -->
<svg version="1.1" id="Layer_1" xmlns="http://www.w3.org/2000/svg" xmlns:xlink="http://www.w3.org/1999/xlink" x="0px" y="0px"
	 viewBox="0 0 224 85" style="enable-background:new 0 0 224 85;" xml:space="preserve">
<style type="text/css">
	.st0{fill-rule:evenodd;clip-rule:evenodd;fill:#BEB5B0;}
	.st1{enable-background:new    ;}
	.st2{fill:#BEB5B0;}
</style>
<title>Group 42</title>
<desc>Created with Sketch.</desc>
<g id="Desktop">
	<g id="Default-Home" transform="translate(-61.000000, -63.000000)">
		<g id="Group-42" transform="translate(61.000000, 60.000000)">
			<g id="Group-41" transform="translate(0.000000, 3.000000)">
				<path id="Fill-1" class="st0" d="M40.6,11.3c-16,0-29,13.1-29,29.1c0,16.1,13,29.1,29,29.1s29-13.1,29-29.1
					C69.5,24.4,56.6,11.3,40.6,11.3 M40.6,64.3c-13.1,0-23.7-10.7-23.7-23.9s10.6-23.9,23.7-23.9s23.7,10.7,23.7,23.9
					S53.7,64.3,40.6,64.3"/>
				<path id="Fill-3" class="st0" d="M50.4,40.4c0-2.9-1.3-5.5-3.3-7.3c1.8,2.9,1.6,5.3,1.3,6.3c-0.5,2-2.1,3.5-3.9,3.9
					c-0.3,0.1-0.5,0.1-0.7,0.1c-1.2,0-2.3-0.5-3.2-1.5c-0.9,0.1-3.3,0.5-3.6,2.3c-0.2,0.9,0.4,2,1.4,2.8c1,0.8,3.7,2.4,8.9,0.9
					C49.2,45.9,50.4,43.3,50.4,40.4"/>
				<path id="Fill-5" class="st0" d="M37.4,48c-1.4-1.2-2.1-2.7-1.8-4.2c0.5-2.7,3.4-3.4,4.7-3.4c0.1-1.1,0-3.6-2.2-4.3
					c-3.5-0.9-6.9,3-7.4,3.8v0.5c0,5.4,4.4,9.9,9.8,9.9c1.1,0,2.2-0.2,3.2-0.5h-0.6C40,49.8,38.2,48.7,37.4,48"/>
				<path id="Fill-7" class="st0" d="M31.2,37.3c1.6-1.5,4.3-3.3,7.3-2.5c3.1,0.8,3.4,4.2,3.2,6.1c0.7,0.8,1.6,1.2,2.6,1
					c1.3-0.3,2.3-1.4,2.8-2.8c0.6-2.4-0.6-5.4-3.6-8.1c-0.9-0.3-1.9-0.5-2.9-0.5C36.3,30.5,32.6,33.4,31.2,37.3"/>
				<path id="Fill-9" class="st0" d="M40.6,9.9c1.9,0,3.8,0.2,5.6,0.5c0.1-0.4,0.2-0.6,0.2-1.1c0-1.8-1.4-3.3-3.2-3.3
					c-0.2,0-0.5,0-0.6,0.1c0.5-0.5,1-1.4,1-2.3c0-1.8-1.4-3.3-3.2-3.3c-1.8,0-3.2,1.5-3.2,3.3c0,0.9,0.4,1.7,1,2.3
					c-0.2,0-0.4-0.1-0.6-0.1c-1.8,0-3.2,1.5-3.2,3.3c0,0.5,0.1,0.8,0.2,1.2C36.3,10,38.4,9.9,40.6,9.9 M40.2,7.1
					c0.2,0,0.5,0,0.6-0.1c-0.3,0.3-0.5,0.5-0.6,0.9c-0.2-0.4-0.4-0.6-0.6-0.9C39.9,7.1,40,7.1,40.2,7.1"/>
				<path id="Fill-11" class="st0" d="M64.1,21.2c1.4-0.4,2.4-1.6,2.4-3.2c0-1.8-1.4-3.3-3.2-3.3c-1.5,0-2.7,1-3.1,2.4
					C61.7,18.4,63,19.7,64.1,21.2"/>
				<path id="Fill-13" class="st0" d="M78,37.3c-0.9,0-1.7,0.4-2.3,1c0-0.2,0.1-0.4,0.1-0.6c0-1.8-1.4-3.3-3.2-3.3
					c-0.8,0-1.5,0.3-2.2,0.8c0.3,1.6,0.5,3.4,0.5,5.2c0.1,0.1,0.2,0.1,0.3,0.2c-0.1,0-0.2,0.1-0.3,0.2c0,1.7-0.2,3.4-0.5,5.2
					c0.5,0.5,1.4,0.8,2.2,0.8c1.8,0,3.2-1.5,3.2-3.3c0-0.2,0-0.5-0.1-0.6c0.5,0.5,1.4,1,2.3,1c1.8,0,3.2-1.5,3.2-3.3
					C81.3,38.6,79.8,37.3,78,37.3 M74.9,41.1c-0.3-0.3-0.5-0.5-0.9-0.6c0.4-0.2,0.6-0.4,0.9-0.6c0,0.2-0.1,0.4-0.1,0.6
					C74.9,40.7,74.9,40.9,74.9,41.1"/>
				<path id="Fill-15" class="st0" d="M64,59.8c-1.3,1.5-2.6,2.9-4.1,4.2c0.5,1.2,1.6,2.1,3,2.1c1.8,0,3.2-1.5,3.2-3.3
					C66.1,61.5,65.2,60.3,64,59.8"/>
				<path id="Fill-17" class="st0" d="M40.6,70.9c-2,0-4-0.2-6-0.5c-0.1,0.3-0.2,0.6-0.2,1c0,1.8,1.4,3.3,3.2,3.3
					c0.2,0,0.5,0,0.6-0.1c-0.5,0.5-1,1.4-1,2.3c0,1.8,1.4,3.3,3.2,3.3s3.2-1.5,3.2-3.3c0-0.9-0.4-1.7-1-2.3c0.2,0,0.4,0.1,0.6,0.1
					c1.8,0,3.2-1.5,3.2-3.3c0-0.4-0.1-0.7-0.2-1C44.6,70.7,42.6,70.9,40.6,70.9 M40.6,73.5c-0.2,0-0.5,0-0.6,0.1
					c0.3-0.3,0.5-0.5,0.6-0.9c0.2,0.4,0.4,0.6,0.6,0.9C41,73.6,40.8,73.5,40.6,73.5"/>
				<path id="Fill-19" class="st0" d="M17.1,59.8c-1.3,0.5-2.1,1.6-2.1,3c0,1.8,1.4,3.3,3.2,3.3c1.4,0,2.5-0.9,3-2.1
					C19.8,62.7,18.4,61.3,17.1,59.8"/>
				<path id="Fill-21" class="st0" d="M10.6,34.9c-0.5-0.5-1.2-0.6-2-0.6c-1.8,0-3.2,1.5-3.2,3.3c0,0.2,0,0.5,0.1,0.6
					c-0.5-0.5-1.4-1-2.3-1c-1.8,0-3.2,1.5-3.2,3.3c0,1.8,1.4,3.3,3.2,3.3c0.9,0,1.7-0.4,2.3-1c0,0.2-0.1,0.4-0.1,0.6
					c0,1.8,1.4,3.3,3.2,3.3c0.7,0,1.4-0.3,2-0.6c-0.4-1.7-0.5-3.6-0.5-5.4C10.2,38.5,10.4,36.7,10.6,34.9 M6.5,41
					c0-0.2,0.1-0.4,0.1-0.6c0-0.3,0-0.5-0.1-0.6C6.8,40,7,40.2,7.4,40.3C7,40.5,6.7,40.8,6.5,41"/>
				<path id="Fill-23" class="st0" d="M16.8,21.6c1.2-1.5,2.4-2.8,3.9-4.1c-0.5-1.4-1.6-2.3-3.1-2.3c-1.8,0-3.2,1.5-3.2,3.3
					C14.3,19.9,15.4,21.2,16.8,21.6"/>
				<path id="Fill-25" class="st0" d="M43.1,28.5V18.1c-0.8-0.1-1.7-0.2-2.5-0.2c-0.9,0-1.7,0.1-2.6,0.2v10.2
					c0.8-0.2,1.7-0.3,2.5-0.3C41.4,28.2,42.3,28.3,43.1,28.5"/>
				<path id="Fill-27" class="st0" d="M54.4,22.8l-7.2,7.3c1.4,0.9,2.7,2.2,3.6,3.6l7.2-7.3C56.9,25.1,55.7,23.9,54.4,22.8"/>
				<path id="Fill-29" class="st0" d="M52.8,40.4c0,0.8-0.1,1.7-0.3,2.4h10.2c0.1-0.8,0.2-1.7,0.2-2.5c0-0.9-0.1-1.7-0.2-2.5H52.5
					C52.7,38.7,52.8,39.5,52.8,40.4"/>
				<path id="Fill-31" class="st0" d="M47.3,50.8l7.1,7.2c1.4-1.1,2.5-2.3,3.6-3.6l-7.1-7.2C49.9,48.6,48.7,49.8,47.3,50.8"/>
				<path id="Fill-33" class="st0" d="M38,52.5v10.2c0.8,0.1,1.7,0.2,2.5,0.2c0.9,0,1.7-0.1,2.5-0.2V52.5c-0.8,0.2-1.7,0.3-2.5,0.3
					C39.7,52.8,38.8,52.7,38,52.5"/>
				<path id="Fill-35" class="st0" d="M30.3,47.1l-7.1,7.2c1.1,1.4,2.3,2.5,3.6,3.6l7.1-7.2C32.4,49.8,31.2,48.6,30.3,47.1"/>
				<path id="Fill-37" class="st0" d="M28.3,40.4c0-0.9,0.1-1.8,0.3-2.6H18.4c-0.1,0.8-0.2,1.7-0.2,2.5c0,0.9,0.1,1.7,0.2,2.5h10.1
					C28.4,42.1,28.3,41.3,28.3,40.4"/>
				<path id="Fill-39" class="st0" d="M33.9,30.1l-7.2-7.3c-1.4,1.1-2.5,2.3-3.6,3.6l7.2,7.3C31.3,32.3,32.5,31.1,33.9,30.1"/>
			</g>
			<g class="st1">
				<path class="st2" d="M102.8,24V7.2h8.2c2,0,3.5,0.5,4.4,1.5c0.9,1,1.4,2.3,1.4,3.9c0,1-0.3,2-0.8,2.9c-0.5,0.9-1.3,1.6-2.2,2
					l3.1,6.5h-4.1l-3-5.9h-3.2V24H102.8z M106.4,14.6h4.6c1.3,0,1.9-0.7,1.9-2c0-0.6-0.1-1-0.4-1.4c-0.3-0.4-0.8-0.6-1.5-0.6h-4.6
					V14.6z"/>
			</g>
			<g class="st1">
				<path class="st2" d="M119.7,24V7.2h12.1v3.5h-8.4v3h4.7v3.5h-4.7v3.5h8.9V24H119.7z"/>
			</g>
			<g class="st1">
				<path class="st2" d="M140.7,24.2c-1.3,0-2.4-0.3-3.3-0.8c-1-0.5-1.7-1.2-2.2-2c-0.5-0.8-0.9-1.8-1.2-2.7c-0.2-1-0.4-2-0.4-3.1
					c0-1,0.1-2,0.4-3c0.3-1,0.6-1.9,1.2-2.8c0.5-0.9,1.3-1.6,2.2-2.1c1-0.5,2.1-0.8,3.3-0.8c1.5,0,2.8,0.4,3.9,1.2
					c1.1,0.8,1.8,1.7,2.3,2.9l-3.3,1.5c-0.5-0.7-0.9-1.2-1.3-1.5c-0.4-0.3-0.9-0.5-1.6-0.5c-0.6,0-1.1,0.2-1.6,0.5
					c-0.4,0.3-0.8,0.7-1,1.2c-0.2,0.5-0.4,1.1-0.5,1.6c-0.1,0.6-0.2,1.2-0.2,1.8c0,0.8,0.1,1.6,0.3,2.4c0.2,0.8,0.6,1.4,1.1,1.9
					c0.5,0.5,1.1,0.8,1.9,0.8c1,0,2-0.7,2.9-2.2l3.3,1.2C145.6,22.8,143.5,24.2,140.7,24.2z"/>
			</g>
			<g class="st1">
				<path class="st2" d="M155.8,24.3c-1.1,0-2-0.2-2.9-0.5c-0.9-0.3-1.6-0.8-2.1-1.4c-0.6-0.6-1-1.2-1.4-2s-0.6-1.5-0.8-2.3
					c-0.2-0.8-0.3-1.6-0.3-2.5c0-0.9,0.1-1.7,0.3-2.5c0.2-0.8,0.4-1.6,0.8-2.3s0.8-1.4,1.4-2c0.6-0.6,1.3-1,2.1-1.4
					c0.9-0.3,1.8-0.5,2.9-0.5c1.3,0,2.4,0.3,3.4,0.8s1.8,1.2,2.3,2c0.6,0.9,1,1.8,1.3,2.8s0.4,2,0.4,3.1c0,1.1-0.1,2.1-0.4,3.1
					c-0.3,1-0.7,1.9-1.3,2.8c-0.6,0.9-1.3,1.5-2.3,2S157.1,24.3,155.8,24.3z M155.8,20.8c0.8,0,1.5-0.3,2.1-0.9c0.6-0.6,1-1.2,1.2-2
					c0.2-0.7,0.3-1.5,0.3-2.3c0-0.9-0.1-1.7-0.3-2.4c-0.2-0.7-0.6-1.4-1.2-1.9c-0.6-0.6-1.3-0.8-2.2-0.8c-0.9,0-1.6,0.3-2.2,0.9
					c-0.6,0.6-1,1.2-1.2,2s-0.3,1.5-0.3,2.4c0,0.6,0.1,1.2,0.2,1.8c0.1,0.6,0.3,1.1,0.6,1.6c0.3,0.5,0.7,0.9,1.2,1.2
					S155.2,20.8,155.8,20.8z"/>
			</g>
			<g class="st1">
				<path class="st2" d="M167.9,24l-6-16.8h4l3.6,10.6c0,0.1,0.1,0.3,0.1,0.5l0.1,0.3c0-0.1,0.1-0.4,0.2-0.7l3.6-10.6h3.9l-6,16.8
					H167.9z"/>
			</g>
			<g class="st1">
				<path class="st2" d="M178.5,24V7.2h12.1v3.5h-8.4v3h4.7v3.5h-4.7v3.5h8.9V24H178.5z"/>
			</g>
			<g class="st1">
				<path class="st2" d="M193.8,24V7.2h8.2c2,0,3.5,0.5,4.4,1.5c0.9,1,1.4,2.3,1.4,3.9c0,1-0.3,2-0.8,2.9c-0.5,0.9-1.3,1.6-2.2,2
					l3.1,6.5h-4.1l-3-5.9h-3.2V24H193.8z M197.4,14.6h4.6c1.3,0,1.9-0.7,1.9-2c0-0.6-0.1-1-0.4-1.4c-0.3-0.4-0.8-0.6-1.5-0.6h-4.6
					V14.6z"/>
			</g>
			<g class="st1">
				<path class="st2" d="M213.6,24v-6.5l-6.4-10.3h4.1l4.1,6.4l4.1-6.4h4.1l-6.4,10.3V24H213.6z"/>
			</g>
			<g class="st1">
				<path class="st2" d="M102.8,34.2h6.2c1.4,0,2.7,0.2,3.7,0.7c1.1,0.5,1.9,1.1,2.6,1.9c0.6,0.8,1.1,1.7,1.4,2.7
					c0.3,1,0.5,2,0.5,3.1c0,0.8-0.1,1.6-0.3,2.3s-0.5,1.5-0.9,2.3s-0.9,1.4-1.6,1.9c-0.6,0.6-1.4,1-2.4,1.3c-1,0.3-2,0.5-3.2,0.5
					h-6.1V34.2z M109.3,47.5c1.4,0,2.4-0.5,3.1-1.5c0.7-1,1-2.1,1-3.4c0-1.3-0.3-2.5-1-3.5c-0.7-1-1.6-1.5-2.9-1.5h-3.1v9.9H109.3z"
					/>
			</g>
			<g class="st1">
				<path class="st2" d="M130.6,51v-6.9h-6.7V51h-3.6V34.2h3.6v6.4h6.7v-6.4h3.7V51H130.6z"/>
				<path class="st2" d="M149.2,51l-1.2-3.3h-6.3l-1.2,3.3h-4l6.6-16.8h3.5l6.6,16.8H149.2z M146.7,44.4l-1.4-3.6
					c-0.2-0.5-0.4-1-0.5-1.4c-0.1,0.3-0.2,0.7-0.5,1.4l-1.4,3.6H146.7z"/>
			</g>
			<g class="st1">
				<path class="st2" d="M155.3,51V34.2h8.2c2,0,3.5,0.5,4.4,1.5c0.9,1,1.4,2.3,1.4,3.9c0,1-0.3,2-0.8,2.9s-1.3,1.6-2.2,2l3.1,6.5
					h-4.1l-3-5.9h-3.2V51H155.3z M158.9,41.6h4.6c1.3,0,1.9-0.7,1.9-2c0-0.6-0.1-1-0.4-1.4c-0.3-0.4-0.8-0.6-1.5-0.6h-4.6V41.6z"/>
			</g>
			<g class="st1">
				<path class="st2" d="M188.2,51h-3.6v-8.3c0-0.2,0-0.3,0-0.5c-0.1,0.2-0.2,0.4-0.2,0.5l-4.1,8.7l-4.1-8.6c0-0.1-0.1-0.3-0.2-0.5
					v0.5V51h-3.6V34.2h3.7l3.9,8.6c0.1,0.3,0.2,0.6,0.4,1.1c0.2-0.4,0.3-0.8,0.4-1.1l4-8.6h3.4V51z"/>
				<path class="st2" d="M203.1,51l-1.2-3.3h-6.3l-1.2,3.3h-4l6.6-16.8h3.5l6.6,16.8H203.1z M200.6,44.4l-1.4-3.6
					c-0.2-0.5-0.4-1-0.5-1.4c-0.1,0.3-0.2,0.7-0.5,1.4l-1.4,3.6H200.6z"/>
			</g>
			<g class="st1">
				<path class="st2" d="M112.8,84h-1.3l-5-8c-0.2-0.3-0.3-0.6-0.4-0.8c0,0.3,0,0.6,0,0.8v8h-1.4V72.8h1.4l5,8
					c0.2,0.3,0.3,0.6,0.5,0.8c0-0.4,0-0.7,0-0.8v-8h1.4V84z"/>
			</g>
			<g class="st1">
				<path class="st2" d="M118.8,84.2c-1.1,0-2-0.4-2.6-1.2c-0.7-0.8-1-1.8-1-3.1c0-1.3,0.3-2.4,1-3.1c0.7-0.8,1.5-1.1,2.6-1.1
					c1,0,1.8,0.3,2.4,1s1,1.6,1,2.9c0,0.3,0,0.6,0,0.9h-5.5c0.1,0.7,0.3,1.3,0.7,1.8c0.4,0.5,0.9,0.7,1.5,0.7c0.7,0,1.3-0.2,1.8-0.7
					l0.8,0.9C120.7,83.8,119.9,84.2,118.8,84.2z M116.6,79.3h4.2c0-0.8-0.2-1.5-0.6-1.8c-0.4-0.4-0.8-0.6-1.4-0.6
					c-0.6,0-1.1,0.2-1.6,0.6C116.9,77.9,116.6,78.5,116.6,79.3z"/>
			</g>
			<g class="st1">
				<path class="st2" d="M125.3,84l-2.1-8.2h1.4l1.2,5.5c0,0.1,0,0.2,0.1,0.4c0,0.2,0.1,0.4,0.1,0.5c0-0.1,0.1-0.4,0.2-0.9l1.5-5.5
					h1.2l1.5,5.5l0.2,0.9c0-0.1,0.1-0.2,0.1-0.4c0-0.2,0.1-0.4,0.1-0.4l1.2-5.5h1.4l-2.1,8.2h-1.2l-1.5-4.8
					c-0.1-0.5-0.3-0.8-0.3-1.1c-0.1,0.4-0.2,0.8-0.3,1.1l-1.5,4.8H125.3z"/>
			</g>
			<g class="st1">
				<path class="st2" d="M141.6,84v-4.4l-3.8-6.8h1.6l2.9,5.4l3-5.4h1.5l-3.8,6.8V84H141.6z"/>
			</g>
			<g class="st1">
				<path class="st2" d="M152.1,83c-0.7,0.8-1.5,1.1-2.6,1.1s-2-0.4-2.6-1.1c-0.7-0.8-1-1.8-1-3.1c0-1.3,0.3-2.4,1-3.1
					c0.7-0.8,1.5-1.1,2.6-1.1s2,0.4,2.6,1.1c0.7,0.8,1,1.8,1,3.1C153.1,81.2,152.8,82.3,152.1,83z M147.9,82.1
					c0.4,0.5,0.9,0.8,1.6,0.8s1.2-0.3,1.6-0.8c0.4-0.5,0.6-1.3,0.6-2.2c0-0.9-0.2-1.7-0.6-2.2c-0.4-0.5-0.9-0.8-1.6-0.8
					s-1.2,0.3-1.6,0.8s-0.6,1.3-0.6,2.2C147.3,80.8,147.5,81.6,147.9,82.1z"/>
			</g>
			<g class="st1">
				<path class="st2" d="M155.3,84v-8.2h1.4v1.1c0.4-0.8,1-1.3,1.9-1.3c0.5,0,0.9,0.1,1.3,0.4l-0.2,1.3c-0.3-0.2-0.7-0.4-1.2-0.4
					c-0.5,0-0.9,0.2-1.3,0.6c-0.4,0.4-0.6,1-0.6,1.8V84H155.3z"/>
			</g>
			<g class="st1">
				<path class="st2" d="M168,84h-1.5l-2.5-4.9l-1.2,1.2V84h-1.4V73.1l1.4-0.7v6.2l2.7-2.8h1.7l-2.1,2.2L168,84z"/>
			</g>
			<g class="st1">
				<path class="st2" d="M178.6,84.2c-0.8,0-1.5-0.2-2.1-0.5c-0.6-0.3-1.1-0.8-1.5-1.3c-0.4-0.6-0.6-1.2-0.8-1.8
					c-0.2-0.7-0.3-1.4-0.3-2.1c0-0.7,0.1-1.4,0.3-2.1c0.2-0.7,0.4-1.3,0.8-1.8s0.8-1,1.5-1.3s1.3-0.5,2.1-0.5c1.7,0,3,0.7,3.6,2
					l-1.2,0.6c-0.3-0.4-0.6-0.8-1-1s-0.8-0.3-1.4-0.3c-0.8,0-1.4,0.2-1.9,0.7c-0.5,0.5-0.8,1-1,1.7c-0.2,0.6-0.3,1.3-0.3,2.1
					c0,1.2,0.3,2.3,0.8,3.2c0.5,0.9,1.3,1.3,2.4,1.3s1.9-0.5,2.4-1.4l1.3,0.5c-0.3,0.7-0.8,1.2-1.4,1.6
					C180.3,84,179.6,84.2,178.6,84.2z"/>
				<path class="st2" d="M185.9,74.1c-0.2,0.2-0.4,0.2-0.6,0.2c-0.2,0-0.5-0.1-0.6-0.3c-0.2-0.2-0.2-0.4-0.2-0.6
					c0-0.2,0.1-0.5,0.3-0.6c0.2-0.2,0.4-0.3,0.6-0.3c0.2,0,0.5,0.1,0.6,0.3c0.2,0.2,0.3,0.4,0.3,0.6
					C186.2,73.7,186.1,73.9,185.9,74.1z M184.6,84v-8.2h1.4V84H184.6z"/>
				<path class="st2" d="M190.9,84.2c-1.2,0-1.7-0.7-1.7-2V77h-1.3v-1.2h1.3v-2.7l1.4-0.7v3.4h2V77h-2v4.7c0,0.4,0.1,0.6,0.2,0.8
					c0.1,0.2,0.3,0.3,0.7,0.3c0.4,0,0.8-0.1,1.2-0.4l-0.2,1.4C192,84.1,191.4,84.2,190.9,84.2z"/>
				<path class="st2" d="M195.6,87.1l1.2-3.3l-3-8h1.4l2,5.6c0.1,0.2,0.2,0.4,0.3,0.8c0.1-0.3,0.2-0.6,0.3-0.8l2.1-5.6h1.4L197,87.1
					H195.6z"/>
			</g>
		</g>
	</g>
</g>
</svg>
